{"title":"Thunderbirds Are Go S01E25 Undercover 1080P WEB-DL AAC2 0 H 264","uid":13693007,"size":895008753,"categoryP":"video","categoryS":"hd___tv_shows","magnet":"?xt=urn:btih:218c3d89327ae61e85f6a886104302532f0bf1ab&amp;dn=Thunderbirds+Are+Go+S01E25+Undercover+1080P+WEB-DL+AAC2+0+H+264&amp;tr=udp%3A%2F%2Ftracker.leechers-paradise.org%3A6969&amp;tr=udp%3A%2F%2Fzer0day.ch%3A1337&amp;tr=udp%3A%2F%2Fopen.demonii.com%3A1337&amp;tr=udp%3A%2F%2Ftracker.coppersurfer.tk%3A6969&amp;tr=udp%3A%2F%2Fexodus.desync.com%3A6969","seeders":0,"leechers":0,"uploader":"jmanwf","files":1,"time":1456635231,"description":"An undercover sting operation involving Lady Penelope, Kayo and a heavily disguised Parker gets blown prematurely by the GDF, and Parker is taken prisoner by the panicking thief Banino. Banino takes off in a stolen GDF flyer with Kayo in pursuit in Thunderbird Shadow. It all ends in a crash landing in a factory - and International Rescue intervene. Scott, in Thunderbird 1, rescues one of the factory workers and Lady Penelope saves Parker. Kayo goes after Banino - but finds herself being blackmailed.\r\n\r\n\r\n\r\nVideo\r\nID : 2\r\nFormat : AVC\r\nFormat/Info : Advanced Video Codec\r\nFormat profile :   \r\nFormat settings, CABAC : Yes\r\nFormat settings, ReFrames : 4 frames\r\nCodec ID : avc1\r\nCodec ID/Info : Advanced Video Coding\r\nDuration : 22mn 8s\r\nBit rate : 5 262 Kbps\r\nWidth : 1 920 pixels\r\nHeight : 1 080 pixels\r\nDisplay aspect ratio : 16:9\r\nFrame rate mode : Constant\r\nFrame rate : 25.000 fps\r\nColor space : YUV\r\nChroma subsampling : 4:2:0\r\nBit depth : 8 bits\r\nScan type : Progressive\r\nBits/(Pixel*Frame) : 0.101\r\nStream size : 833 MiB (98%)\r\nLanguage : English\r\nEncoded date : UTC 2016-02-27 12:42:07\r\nTagged date : UTC 2016-02-27 12:44:23\r\nColor range : Limited\r\nColor primaries : BT.709\r\nTransfer characteristics : BT.709\r\nMatrix coefficients : BT.709\r\n\r\nAudio\r\nID : 1\r\nFormat : AAC\r\nFormat/Info : Advanced Audio Codec\r\nFormat profile : LC\r\nCodec ID : 40\r\nDuration : 22mn 8s\r\nBit rate mode : Variable\r\nBit rate : 125 Kbps\r\nMaximum bit rate : 208 Kbps\r\nChannel(s) : 2 channels\r\nChannel positions : Front: L R\r\nSampling rate : 48.0 KHz\r\nCompression mode : Lossy\r\nStream size : 19.8 MiB (2%)\r\nLanguage : English\r\nEncoded date : UTC 2016-02-27 12:42:06\r\nTagged date : UTC 2016-02-27 12:44:23","torrent":{"xt":"urn:btih:218c3d89327ae61e85f6a886104302532f0bf1ab","amp;dn":"Thunderbirds+Are+Go+S01E25+Undercover+1080P+WEB-DL+AAC2+0+H+264","amp;tr":["udp%3A%2F%2Ftracker.leechers-paradise.org%3A6969","udp%3A%2F%2Fzer0day.ch%3A1337","udp%3A%2F%2Fopen.demonii.com%3A1337","udp%3A%2F%2Ftracker.coppersurfer.tk%3A6969","udp%3A%2F%2Fexodus.desync.com%3A6969"],"infoHash":"218c3d89327ae61e85f6a886104302532f0bf1ab","infoHashBuffer":{"type":"Buffer","data":[33,140,61,137,50,122,230,30,133,246,168,134,16,67,2,83,47,11,241,171]},"announce":[],"urlList":[]}}